<?xml version="1.0" standalone="no"?>
<!DOCTYPE svg PUBLIC "-//W3C//DTD SVG 20010904//EN"
 "http://www.w3.org/TR/2001/REC-SVG-20010904/DTD/svg10.dtd">
<svg version="1.0" xmlns="http://www.w3.org/2000/svg"
 width="147.000000pt" height="147.000000pt" viewBox="0 0 147.000000 147.000000"
 preserveAspectRatio="xMidYMid meet">
<metadata>
Created by potrace 1.14, written by Peter Selinger 2001-2017
</metadata>
<g transform="translate(0.000000,147.000000) scale(0.100000,-0.100000)"
fill="#000000" stroke="none">
<path d="M604 1461 c5 -7 -5 -11 -28 -11 -20 0 -36 -4 -36 -10 0 -5 -13 -10
-30 -10 -16 0 -30 -4 -30 -8 0 -5 -7 -9 -15 -10 -8 -1 -22 -3 -30 -4 -8 -1
-15 -5 -15 -9 0 -7 -72 -44 -78 -40 -2 1 -16 -12 -32 -29 -19 -21 -30 -27 -33
-18 -4 8 -6 6 -6 -5 -1 -10 -5 -15 -11 -12 -5 3 -10 -1 -10 -9 0 -9 -4 -16
-10 -16 -5 0 -10 -8 -10 -17 0 -15 -2 -16 -10 -3 -9 13 -10 13 -10 0 0 -8 -14
-31 -30 -50 -16 -19 -30 -41 -30 -47 0 -7 -5 -13 -11 -13 -5 0 -7 -4 -4 -10 3
-5 1 -10 -4 -10 -6 0 -10 -6 -9 -12 2 -7 -2 -12 -8 -11 -6 1 -10 -9 -8 -22 1
-14 -2 -27 -7 -31 -5 -3 -9 -144 -9 -328 l0 -322 29 2 c16 1 34 5 40 8 5 4 13
2 16 -4 5 -8 11 -8 19 -1 7 6 16 8 19 4 10 -9 58 -13 53 -4 -3 4 1 8 9 8 8 0
12 -4 9 -9 -3 -4 -1 -8 5 -8 5 0 13 5 16 10 5 7 11 8 19 1 7 -6 17 -6 26 -1 9
6 17 5 21 -2 4 -6 10 -1 14 13 5 15 3 25 -4 27 -8 3 -6 9 6 19 10 8 13 12 7 9
-15 -8 -26 21 -12 30 7 5 8 2 3 -6 -5 -9 -4 -11 4 -6 9 6 9 11 0 22 -6 8 -8
14 -5 14 4 0 3 8 -3 17 -7 13 -5 23 7 37 9 11 12 16 6 13 -15 -9 -27 20 -12
29 7 5 8 2 3 -6 -5 -8 -4 -11 2 -7 6 4 8 18 6 32 -3 15 -10 22 -17 18 -7 -5
-7 -2 1 8 12 15 12 114 -1 126 -3 4 2 15 11 26 10 11 12 17 6 13 -8 -4 -13 -1
-13 9 0 10 5 13 13 9 8 -5 8 -2 -2 9 -7 9 -9 17 -4 17 5 0 9 15 9 33 0 17 5
31 11 30 5 -1 10 6 10 15 0 35 3 43 14 37 6 -4 9 -1 7 6 -3 13 61 87 79 92 4
1 7 5 6 8 -1 3 3 6 10 6 20 2 82 27 89 38 5 6 8 5 8 -2 0 -7 5 -13 11 -13 5 0
7 5 4 10 -3 6 1 10 10 10 10 0 13 -5 9 -12 -6 -10 -4 -10 8 0 21 17 128 13
146 -5 8 -7 18 -10 24 -7 6 4 14 1 18 -5 4 -7 16 -13 28 -14 11 0 18 -5 16 -9
-3 -4 0 -8 6 -8 7 0 26 -15 43 -32 16 -18 34 -32 39 -30 5 1 6 -3 2 -9 -3 -6
-1 -15 6 -19 6 -4 13 -19 13 -34 1 -15 7 -24 13 -22 8 3 11 -8 10 -30 -1 -19
2 -34 6 -34 4 0 4 -7 1 -17 -5 -12 -3 -14 8 -8 12 7 12 6 1 -7 -9 -12 -10 -18
-2 -23 8 -5 8 -11 1 -19 -7 -9 -7 -16 0 -23 8 -8 8 -13 0 -17 -6 -4 -11 -15
-11 -24 0 -15 2 -15 10 -2 6 9 10 10 10 3 0 -6 -4 -15 -10 -18 -5 -3 -10 -11
-10 -16 0 -6 4 -8 8 -5 4 2 8 -4 9 -14 1 -11 -2 -22 -8 -25 -5 -3 -6 2 -3 12
5 14 4 15 -4 4 -11 -15 -5 -44 7 -36 11 6 10 -28 -1 -42 -6 -7 -5 -14 2 -18 8
-5 8 -10 0 -20 -8 -10 -8 -15 0 -20 8 -5 8 -10 0 -20 -8 -10 -8 -15 0 -20 8
-5 8 -10 0 -20 -8 -10 -8 -15 0 -20 8 -5 8 -10 0 -20 -8 -10 -8 -15 1 -20 8
-6 8 -10 -2 -15 -7 -5 3 -7 24 -5 20 2 41 6 46 9 5 4 13 2 16 -4 5 -8 11 -8
19 -1 7 6 16 8 19 4 10 -9 58 -13 53 -4 -3 4 1 8 9 8 8 0 12 -4 9 -9 -3 -4 -1
-8 5 -8 5 0 13 5 16 10 4 6 11 7 17 3 7 -3 28 -6 47 -6 l36 0 2 262 c2 202 -1
260 -10 255 -9 -5 -8 -3 1 7 14 16 16 33 2 24 -5 -3 -10 -2 -10 4 0 5 6 12 13
14 10 4 10 6 0 6 -7 1 -13 11 -13 24 0 13 -6 29 -12 36 -11 11 -10 12 2 6 12
-6 13 -5 3 6 -7 7 -13 21 -13 32 0 10 -4 15 -10 12 -6 -4 -10 5 -10 19 0 14
-4 26 -10 26 -5 0 -10 7 -10 15 0 8 -6 15 -12 15 -9 0 -8 4 2 10 13 8 12 10
-4 10 -11 0 -16 3 -13 6 4 4 -5 17 -19 29 -15 13 -23 28 -20 34 4 6 2 11 -5
11 -14 0 -65 51 -61 62 1 4 -5 5 -13 2 -8 -4 -17 1 -21 10 -3 9 -10 13 -15 10
-5 -3 -9 0 -9 6 0 6 -4 8 -10 5 -5 -3 -10 -1 -10 4 0 6 -5 11 -10 11 -6 0 -23
8 -37 17 -14 10 -38 19 -52 21 -14 2 -28 6 -31 10 -10 13 -77 32 -114 32 -20
0 -35 4 -32 8 3 5 -1 9 -9 9 -8 0 -12 -3 -10 -7 2 -4 -2 -7 -10 -7 -8 0 -12 4
-10 7 3 4 -6 8 -20 8 -14 0 -22 -5 -18 -11 4 -6 1 -7 -8 -1 -8 5 -32 10 -54
11 -29 2 -36 0 -25 -7 21 -13 3 -12 -22 1 -15 8 -19 8 -14 0z"/>
<path d="M195 341 c5 -9 1 -12 -11 -11 -11 1 -36 2 -56 1 l-38 -1 0 -165 0
-165 26 0 c17 0 23 4 18 12 -6 10 -5 10 7 1 18 -14 111 -13 121 1 6 8 8 8 8 0
0 -6 23 -11 50 -13 31 -1 50 2 50 9 0 6 4 9 9 5 5 -3 13 0 17 6 4 7 3 9 -3 6
-6 -4 -13 0 -17 8 -3 8 0 17 6 21 7 5 8 2 3 -6 -5 -8 -4 -11 2 -7 6 4 8 18 6
32 -3 15 -10 22 -17 18 -8 -5 -8 -3 0 8 14 18 16 77 3 85 -6 4 -3 14 8 27 10
11 13 17 7 14 -15 -9 -27 20 -12 29 7 5 8 2 3 -6 -5 -9 -4 -11 3 -6 9 5 9 13
2 26 -13 24 -13 33 0 25 6 -4 6 3 -1 18 -7 15 -18 23 -32 22 -12 -1 -28 3 -36
9 -12 8 -13 8 -7 -2 6 -9 1 -12 -16 -10 -12 2 -29 7 -37 12 -10 6 -12 5 -7 -3
9 -14 -30 -11 -53 3 -10 7 -12 5 -6 -3z"/>
<path d="M1154 342 c5 -8 -11 -11 -52 -9 -55 2 -59 1 -56 -20 1 -12 5 -27 10
-34 4 -8 3 -9 -4 -5 -7 4 -12 3 -12 -3 0 -5 5 -13 10 -16 8 -5 8 -11 0 -20 -8
-10 -8 -15 0 -20 8 -5 8 -11 1 -19 -7 -9 -7 -16 1 -24 9 -9 9 -12 0 -12 -7 0
-12 -5 -12 -11 0 -5 6 -7 13 -3 10 6 10 4 0 -7 -14 -14 -18 -33 -5 -25 4 2 8
-4 8 -15 0 -10 -4 -19 -8 -19 -4 0 -8 -5 -8 -11 0 -5 5 -7 11 -4 6 4 5 -3 -3
-15 -10 -18 -10 -24 0 -27 6 -3 10 -9 6 -14 -8 -14 30 -11 45 4 8 7 11 7 8 1
-9 -16 75 -17 85 -1 6 9 8 9 8 -1 0 -8 5 -10 13 -5 18 11 38 13 31 2 -3 -5 0
-9 5 -9 6 0 11 6 11 13 0 8 4 7 10 -3 8 -13 13 -13 31 -2 11 8 18 9 14 3 -7
-12 14 -15 39 -5 14 5 16 30 16 172 0 91 -3 162 -7 159 -3 -4 -13 -1 -21 6
-13 10 -14 9 -8 -1 6 -9 1 -12 -16 -10 -12 2 -29 7 -37 12 -10 6 -12 5 -7 -3
9 -14 -30 -11 -53 3 -10 6 -12 5 -7 -3 9 -14 -30 -11 -53 3 -9 6 -12 5 -7 -2z"/>
</g>
</svg>
